<svg xmlns="http://www.w3.org/2000/svg" xmlns:xlink="http://www.w3.org/1999/xlink" id="Ebene_1" x="0px" y="0px" width="693.035px" height="348.444px" viewBox="0 0 693.035 348.444" xml:space="preserve"> <g> <path fill="#CAD100" d="M14.23,111.734c5.244,2.138,11.927-3.619,14.384-13.226c2.916-9.72,0.194-18.11-5.403-18.983 c-4.694-0.503-10.126,5.674-12.666,13.894C8.497,101.645,9.96,109.745,14.23,111.734z"></path> <path fill="#CAD100" d="M58.626,141.813c-10.693-4.146-20.046,2.314-21.38,13.722c-0.756,10.746,6.022,22.733,15.571,27.557 c10.516,4.812,20.826,0.065,22.85-11.177C78.106,159.793,70.259,145.91,58.626,141.813z"></path> <path fill="#CAD100" d="M76.027,74.583c13.854,2.875,29.802-6.111,34.514-19.438c4.758-12.27-2.551-23.04-15.731-24.562 c-12.239-0.922-26.003,6.831-31.56,17.761C57.706,60.412,63.055,72.304,76.027,74.583z"></path> <path fill="#CAD100" d="M236.894,90.312c-3.686-3.015-7.229-0.795-8.104,5.288c-3.537-2.264-8.111-4.983-13.734-7.919 c-0.152-9.103-5.961-18.745-13.986-22.841c-8.854-4.064-17.579-0.689-20.195,8.038c-6.717-2.589-12.716-4.808-17.876-6.663 c0.561-8.765-5.408-17.353-14.487-21.277l3.156-13.041c9.994,2.342,18.427-0.76,19.296-6.783 c0.566-5.332-6.437-11.514-15.642-14.354c-8.32-2.081-16.499-0.998-19.736,2.699c-2.94-0.612-6.181-1.2-9.663-1.704 c-3.186-0.461-6.18-0.779-8.929-0.996c0.454-3.274-3.869-5.687-10.314-5.927c-7.144,0.213-15.204,2.899-18.748,6.424 c-3.736,4.441-0.62,8.663,7.518,9.058c8.186,0.783,17.158-2.499,20.419-7.067c2.937,0.203,6.174,0.517,9.628,0.994 c3.089,0.427,6.061,0.957,8.829,1.527c-1.548,5.24,3.573,11.455,12.31,14.637l-4.111,12.868 c-10.746-1.509-21.311,3.729-24.551,13.047c-3.225,9.812,2.088,20.51,12.31,25.27l-4.109,12.862c-13.253-1.15-25.94,6.489-31.02,19 L80.322,109.4c1.508-10.406-4.23-19.868-13.523-21.935c-3.98-0.893-8.03-0.152-11.622,1.793c-2.2-4.228-4.662-9.399-6.896-15.124 c-2-5.124-3.832-10.085-5.379-14.396c4.207-3.634,8.006-8.385,10.469-13.581c5.958-10.91,2.934-18.232-5.514-17.046 c-7.334,1.812-17.213,10.221-23.1,19.32c-5.585,9.984-5.013,18.339,2.167,18.357c3.562,0.242,7.799-1.281,11.93-3.987 c1.051,3.936,2.351,8.482,3.917,13.411c2.224,6.978,4.315,13.384,5.991,18.461c-1.871,2.326-3.367,5.083-4.29,8.169 c-0.603,2.334-0.821,4.68-0.729,6.957c-4.108,3.176-9.342,7.415-15.762,12.975c-4.04,3.497-7.46,7.033-10.234,10.197 c-1.913-3.426-4.285-6.087-6.895-7.432C4.966,122.003,0.372,128.558,0,139.486c0.331,10.352,4.257,22.113,9.364,27.222 c3.177,2.592,6.292,2.742,8.674,0.749c2.784,5.154,5.936,10.828,9.114,16.22c3.39,5.748,6.893,11.268,9.889,15.839 c-1.316,0.831-1.931,2.419-1.579,4.644c1.099,4.418,6.105,10.293,11.59,13.829c5.946,3.3,11.054,2.994,11.054-1.34 c0.141-2.078-0.723-4.533-2.263-6.949c4.281-0.998,9.97-2.545,16.717-4.902c6.5-2.268,12.901-5.087,18.438-7.768 c2.208,2.44,5.032,4.459,8.29,5.795l-4.272,16.873c-8.078-1.761-14.835,0.745-15.53,5.594c-0.466,4.359,5.268,9.397,12.784,11.711 c7.629,1.901,15.145,0.531,16.917-3.448c1.989-4.509-2.451-10.132-10.242-12.769l4.791-16.701 c9.791,1.577,19.437-3.144,22.41-11.598c3.218-9.901-3.359-20.772-14.874-23.878c-11.455-3.271-22.661,2.681-24.994,12.831 c-0.854,4.047-0.05,8.157,1.96,11.771c-5.102,2.906-10.98,5.858-16.976,8.038c-7.434,2.702-13.624,4.296-17.924,5.212 c-2.132-2.322-4.818-4.411-7.761-5.826c-2.005-1.066-3.815-1.633-5.336-1.755c-3.113-4.724-6.865-10.601-10.485-16.738 c-3.397-5.766-6.766-11.856-9.682-17.281c1.231-2.239,2.046-5.378,2.221-9.373c0.625-6.196-0.433-12.771-2.558-18.259 c2.802-2.818,6.364-6.031,10.755-9.504c5.521-4.364,10.597-7.592,15.003-10.025c1.977,4.585,5.501,8.209,10.16,9.76 c8.366,2.788,17.417-1.384,21.935-9.661l15.504,4.233c-1.269,14.386,7.804,28.079,22.187,32.152 c16.185,4.422,32.965-5.061,37.541-21.204c4.019-14.697-3.404-29.876-16.909-35.989l3.137-12.964 c9.71,1.042,18.609-3.603,22.291-11.447c5.396,1.646,11.662,3.71,18.645,6.257c-0.101,9.834,6.439,19.906,15.757,23.346 c8.521,3.288,16.101-0.972,18.562-9.189c6,2.766,10.702,5.119,14.206,6.963c0.076,7.265,3.253,14.564,7.396,16.786 c3.743,2.109,6.684-1.984,6.944-8.963C242.662,101.177,240.171,93.661,236.894,90.312z"></path> <path fill="#CAD100" d="M202.115,54.075c10.191,5.521,17.159,2.801,15.895-5.366c-1.605-6.802-9.612-16.208-18.169-21.747 c-9.399-5.244-17.264-4.7-17.282,2.066C182.004,37.053,190.991,48.756,202.115,54.075z"></path> </g> <path fill="#3A3C42" d="M466.4,344.884c-4.168-2.373-7.404-5.686-9.701-9.936c-2.291-4.252-3.441-9.093-3.441-14.521 c0-5.526,1.197-10.426,3.601-14.707c2.397-4.281,5.669-7.594,9.824-9.938c4.145-2.349,8.747-3.525,13.806-3.525 c4.069,0,7.629,0.502,10.682,1.488c3.059,0.991,5.988,2.374,8.804,4.146c0.419,0.212,0.785,0.577,1.099,1.099 c0.312,0.524,0.473,1.097,0.473,1.723c0,0.886-0.308,1.637-0.903,2.269c-0.603,0.625-1.399,0.938-2.393,0.938 c-0.566,0-1.115-0.13-1.634-0.39c-2.457-1.466-4.907-2.557-7.359-3.29c-2.456-0.726-5.119-1.092-7.981-1.092 c-3.968,0-7.54,0.832-10.723,2.498c-3.185,1.671-5.668,4.109-7.475,7.321c-1.796,3.206-2.693,7.033-2.693,11.46 c0,4.074,0.844,7.713,2.539,10.918c1.688,3.213,4.145,5.746,7.357,7.595c3.206,1.848,7.003,2.773,11.39,2.773 c4.896,0,9.465-1.146,13.688-3.44v-14.159h-12.914c-0.887,0-1.642-0.32-2.268-0.945c-0.619-0.626-0.933-1.383-0.933-2.268 c0-0.887,0.313-1.643,0.933-2.273c0.626-0.626,1.381-0.934,2.268-0.934h15.417c1.045,0,1.937,0.367,2.662,1.093 c0.726,0.731,1.093,1.618,1.093,2.664v17.762c0,1.097-0.271,2.07-0.815,2.938c-0.554,0.857-1.268,1.494-2.153,1.915 c-5.841,2.915-11.816,4.38-17.927,4.38C475.352,348.444,470.575,347.259,466.4,344.884z"></path> <path fill="#3A3C42" d="M521.058,347.04c-0.679-0.681-1.016-1.517-1.016-2.51v-33.568c0-0.991,0.337-1.84,1.016-2.544 c0.68-0.703,1.507-1.059,2.499-1.059c0.997,0,1.842,0.355,2.551,1.059c0.702,0.704,1.051,1.553,1.051,2.544v3.207 c1.464-2.085,3.225-3.808,5.284-5.167c2.061-1.358,4.729-2.03,8.025-2.03c2.922,0,5.419,0.778,7.511,2.35 c2.079,1.564,3.571,3.467,4.458,5.708c3.229-5.371,8.035-8.058,14.399-8.058c2.918,0,5.357,0.726,7.322,2.189 c1.949,1.459,3.396,3.337,4.334,5.633c0.944,2.298,1.411,4.695,1.411,7.204v22.532c0,0.993-0.354,1.829-1.056,2.51 c-0.703,0.674-1.548,1.015-2.545,1.015c-0.993,0-1.824-0.341-2.497-1.015c-0.681-0.681-1.017-1.517-1.017-2.51v-21.127 c0-3.39-0.609-5.881-1.801-7.469c-1.204-1.594-3.266-2.392-6.188-2.392c-2.659,0-4.866,0.69-6.615,2.071 c-1.746,1.389-3.292,3.202-4.65,5.439v23.477c0,0.993-0.356,1.829-1.059,2.51c-0.702,0.674-1.553,1.015-2.544,1.015 c-0.986,0-1.825-0.341-2.504-1.015c-0.679-0.681-1.016-1.517-1.016-2.51v-21.127c0-3.39-0.597-5.881-1.801-7.469 c-1.199-1.594-3.265-2.392-6.182-2.392c-2.657,0-4.865,0.69-6.613,2.071c-1.748,1.389-3.301,3.202-4.659,5.439v23.477 c0,0.993-0.349,1.829-1.051,2.51c-0.709,0.674-1.554,1.015-2.551,1.015C522.565,348.055,521.738,347.714,521.058,347.04z"></path> <path fill="#3A3C42" d="M602.832,342.5v2.03c0,0.993-0.353,1.829-1.057,2.51c-0.708,0.674-1.547,1.015-2.545,1.015 c-0.992,0-1.823-0.341-2.504-1.015c-0.673-0.681-1.015-1.517-1.015-2.51v-50.785c0-0.986,0.342-1.837,1.015-2.545 c0.681-0.703,1.512-1.058,2.504-1.058c1.039,0,1.907,0.343,2.581,1.023c0.679,0.678,1.021,1.539,1.021,2.579v19.173 c3.805-3.963,8.268-5.946,13.38-5.946c3.237,0,6.302,0.821,9.2,2.461c2.895,1.648,5.242,4.045,7.038,7.204 c1.8,3.16,2.704,6.844,2.704,11.072c0,4.227-0.904,7.918-2.704,11.069c-1.796,3.16-4.144,5.559-7.038,7.204 c-2.898,1.643-5.963,2.462-9.2,2.462C611.099,348.444,606.636,346.46,602.832,342.5z M624.508,338.117 c2.343-2.449,3.52-5.921,3.52-10.408c0-4.488-1.177-7.955-3.52-10.411c-2.344-2.45-5.45-3.679-9.312-3.679 c-2.396,0-4.657,0.538-6.767,1.606c-2.113,1.069-3.985,2.492-5.598,4.264v16.432c1.612,1.779,3.484,3.2,5.598,4.269 c2.109,1.071,4.37,1.607,6.767,1.607C619.058,341.797,622.165,340.567,624.508,338.117z"></path> <path fill="#3A3C42" d="M649.816,347.04c-0.686-0.681-1.017-1.517-1.017-2.51v-48.282c0-0.991,0.331-1.837,1.017-2.538 c0.679-0.71,1.51-1.058,2.502-1.058c0.986,0,1.837,0.348,2.54,1.058c0.708,0.701,1.056,1.547,1.056,2.538v20.814h29.66v-20.814 c0-0.991,0.343-1.837,1.021-2.538c0.672-0.71,1.512-1.058,2.504-1.058c0.984,0,1.837,0.348,2.544,1.058 c0.704,0.701,1.058,1.547,1.058,2.538v48.282c0,0.993-0.354,1.829-1.058,2.51c-0.707,0.674-1.56,1.015-2.544,1.015 c-0.992,0-1.832-0.341-2.504-1.015c-0.679-0.681-1.021-1.517-1.021-2.51v-20.812h-29.66v20.812c0,0.993-0.348,1.829-1.056,2.51 c-0.703,0.674-1.554,1.015-2.54,1.015C651.326,348.055,650.495,347.714,649.816,347.04z"></path> <path fill="#3A3C42" d="M200.065,181.087l69.249,92.1c0.114,0.118,0.265,0.247,0.415,0.376l0.136,0.118 c0.09,0.096,0.131,0.15,0.173,0.207c0.027,0.038,0.055,0.076,0.089,0.11c1.04,1.046,2.49,1.576,4.309,1.576 c1.729,0,3.084-0.516,4.143-1.577c1.058-1.051,1.571-2.459,1.571-4.309V164.646c0-1.849-0.514-3.258-1.57-4.309 c-1.061-1.061-2.417-1.576-4.144-1.576c-1.818,0-3.269,0.529-4.31,1.574c-1.045,1.043-1.575,2.492-1.575,4.311v88.354 l-68.789-91.497c-0.287-0.304-0.643-0.618-1.056-0.923c-0.107-0.104-0.142-0.149-0.176-0.196c-1.096-1.106-2.452-1.622-4.179-1.622 c-1.819,0-3.269,0.529-4.308,1.574c-1.047,1.042-1.577,2.491-1.577,4.311v105.043c0,1.82,0.53,3.27,1.575,4.308 c1.04,1.049,2.49,1.578,4.31,1.578c1.729,0,3.084-0.516,4.144-1.577c1.057-1.051,1.571-2.459,1.571-4.309V181.087z"></path> <path fill="#3A3C42" d="M313.565,187.244c-1.818,0-3.268,0.529-4.309,1.574c-1.047,1.044-1.577,2.495-1.577,4.312v76.559 c0,1.819,0.529,3.269,1.575,4.308c1.041,1.049,2.491,1.578,4.311,1.578c1.728,0,3.083-0.516,4.144-1.577 c1.057-1.051,1.57-2.46,1.57-4.309V193.13c0-1.847-0.514-3.257-1.569-4.31C316.646,187.759,315.291,187.244,313.565,187.244z"></path> <path fill="#3A3C42" d="M421.363,207.386c-3.321-6.528-8.068-11.707-14.109-15.393c-6.04-3.691-13.23-5.563-21.375-5.563 c-8.252,0-15.636,1.953-21.947,5.805c-6.313,3.853-11.337,9.202-14.93,15.898c-3.589,6.703-5.41,14.562-5.41,23.359 c0,8.693,1.93,16.521,5.736,23.268c3.801,6.748,9.12,12.096,15.812,15.896c6.693,3.805,14.495,5.734,23.188,5.734 c5.04,0,10.365-1.006,15.83-2.989c5.462-1.98,10.026-4.506,13.568-7.507c1.196-0.994,1.753-2.149,1.706-3.534 c-0.055-1.398-0.726-2.677-2.053-3.903c-0.916-0.731-2.012-1.098-3.322-1.098l-0.245,0.005c-1.414,0.053-2.689,0.539-3.788,1.441 c-2.428,2.09-5.695,3.852-9.706,5.227c-4.004,1.37-8.038,2.063-11.99,2.063c-6.583,0-12.488-1.504-17.552-4.471 c-5.06-2.973-9.101-7.099-12.01-12.263c-2.27-4.016-3.67-8.64-4.161-13.743l-0.053-0.532h66.424c1.632,0,2.91-0.463,3.907-1.417 c1.002-0.95,1.487-2.197,1.487-3.812C426.372,221.493,424.687,213.933,421.363,207.386z M354.782,225.613l0.077-0.553 c0.593-4.26,1.737-8.128,3.405-11.497c2.585-5.225,6.295-9.384,11.028-12.36c4.746-2.973,10.327-4.479,16.586-4.479 c6.159,0,11.548,1.454,16.017,4.322c4.456,2.859,7.948,6.879,10.379,11.949c1.73,3.62,2.826,7.686,3.259,12.085l0.052,0.533H354.782 z"></path> <path fill="#3A3C42" d="M313.512,158.844c-3.132,0-5.678,2.55-5.678,5.685c0,3.131,2.546,5.678,5.678,5.678 c3.134,0,5.685-2.547,5.685-5.678C319.197,161.394,316.646,158.844,313.512,158.844z"></path> <path fill="#3A3C42" d="M440.124,190.51c-1.494,0-2.754,0.478-3.745,1.42c-0.994,0.947-1.478,2.139-1.478,3.645 c0,1.398,0.483,2.538,1.478,3.485c0.991,0.943,2.252,1.421,3.745,1.421h11.103v44.073c0,5.982,1.297,11.368,3.854,16.009 c2.558,4.635,6.097,8.337,10.519,11.001c4.427,2.662,9.533,4.011,15.178,4.011h3.426c1.832,0,3.373-0.537,4.579-1.599 c1.209-1.054,1.795-2.401,1.795-4.121c0-1.711-0.508-3.139-1.509-4.243c-0.998-1.102-2.269-1.637-3.886-1.637h-4.405 c-5.231,0-9.58-1.838-12.928-5.463c-3.337-3.609-5.029-8.306-5.029-13.958V200.48h18.938c1.511,0,2.735-0.466,3.746-1.422 c0.995-0.946,1.479-2.087,1.479-3.484c0-1.506-0.483-2.696-1.479-3.645c-1.009-0.954-2.233-1.42-3.745-1.42H462.82v-25.787 c0-1.731-0.541-3.114-1.652-4.227s-2.494-1.652-4.227-1.652c-1.731,0-3.085,0.537-4.136,1.644c-1.062,1.111-1.579,2.496-1.579,4.235 v25.787H440.124z"></path> <path fill="#3A3C42" d="M516.022,187.244c-1.837,0-3.246,0.515-4.309,1.575c-1.042,1.044-1.57,2.495-1.57,4.311v76.559 c0,1.817,0.528,3.267,1.57,4.309c1.061,1.062,2.47,1.577,4.309,1.577c1.732,0,3.09-0.516,4.15-1.577 c1.042-1.041,1.569-2.49,1.569-4.309V193.13c0-1.816-0.527-3.267-1.569-4.311C519.125,187.774,517.728,187.244,516.022,187.244z"></path> <path fill="#3A3C42" d="M515.828,158.844c-3.135,0-5.685,2.55-5.685,5.685c0,3.131,2.55,5.678,5.685,5.678 c3.131,0,5.679-2.547,5.679-5.678C521.506,161.394,518.958,158.844,515.828,158.844z"></path> <path fill="#3A3C42" d="M623.82,207.386c-3.312-6.522-8.057-11.7-14.102-15.393c-6.046-3.691-13.238-5.563-21.376-5.563 c-8.25,0-15.636,1.953-21.953,5.805c-6.32,3.86-11.341,9.209-14.924,15.898c-3.59,6.689-5.409,14.548-5.409,23.359 c0,8.689,1.928,16.519,5.729,23.269c3.8,6.745,9.122,12.092,15.819,15.895c6.688,3.806,14.487,5.734,23.183,5.734 c5.043,0,10.37-1.006,15.835-2.989c5.465-1.982,10.028-4.507,13.563-7.506c1.197-0.996,1.754-2.151,1.706-3.534 c-0.048-1.394-0.717-2.671-2.047-3.905c-0.922-0.729-2.02-1.097-3.329-1.097l-0.245,0.005c-1.428,0.054-2.668,0.525-3.789,1.442 c-2.409,2.083-5.676,3.844-9.697,5.226c-4.006,1.37-8.043,2.063-11.997,2.063c-6.586,0-12.489-1.504-17.546-4.471 c-5.066-2.977-9.109-7.103-12.017-12.263c-2.271-4.03-3.67-8.654-4.158-13.743l-0.052-0.532h66.426c1.627,0,2.906-0.464,3.911-1.418 c0.993-0.945,1.477-2.192,1.477-3.811C628.828,221.491,627.143,213.931,623.82,207.386z M557.242,225.613l0.077-0.554 c0.593-4.258,1.738-8.126,3.403-11.496c2.587-5.228,6.299-9.386,11.035-12.361c4.737-2.972,10.317-4.479,16.585-4.479 c6.152,0,11.541,1.454,16.016,4.322c4.461,2.865,7.953,6.886,10.379,11.949c1.729,3.617,2.824,7.684,3.254,12.085l0.051,0.533 H557.242z"></path> <path fill="#3A3C42" d="M642.587,190.51c-1.517,0-2.741,0.465-3.744,1.42c-0.999,0.944-1.484,2.137-1.484,3.645 c0,1.401,0.485,2.541,1.483,3.484c1.006,0.957,2.229,1.422,3.745,1.422h11.097v44.073c0,5.983,1.299,11.369,3.86,16.008 c2.562,4.642,6.1,8.343,10.518,11.002c4.421,2.662,9.526,4.011,15.174,4.011h3.43c1.854,0,3.351-0.523,4.575-1.599 c1.208-1.055,1.794-2.402,1.794-4.121c0-1.714-0.506-3.142-1.503-4.243c-1.002-1.102-2.273-1.637-3.886-1.637h-4.41 c-5.231,0-9.581-1.838-12.928-5.463c-3.335-3.606-5.025-8.304-5.025-13.958V200.48h18.934c1.516,0,2.739-0.465,3.744-1.421 c0.999-0.95,1.484-2.09,1.484-3.485c0-1.503-0.485-2.695-1.484-3.645c-1.003-0.955-2.229-1.42-3.744-1.42h-18.934v-25.787 c0-1.727-0.541-3.109-1.653-4.228c-1.11-1.111-2.493-1.651-4.226-1.651c-1.729,0-3.084,0.537-4.142,1.645 c-1.047,1.102-1.578,2.526-1.578,4.234v25.787H642.587z"></path> </svg>