<svg xmlns="http://www.w3.org/2000/svg" xmlns:xlink="http://www.w3.org/1999/xlink" id="Ebene_1" x="0px" y="0px" width="693.035px" height="348.443px" viewBox="0 0 693.035 348.443" xml:space="preserve"> <g> <path fill="#FFFFFF" d="M14.23,111.734c5.244,2.139,11.927-3.618,14.384-13.226c2.916-9.72,0.194-18.11-5.403-18.983 c-4.694-0.503-10.126,5.675-12.666,13.895C8.497,101.645,9.96,109.745,14.23,111.734z"></path> <path fill="#FFFFFF" d="M58.626,141.813c-10.693-4.146-20.046,2.314-21.38,13.723c-0.756,10.746,6.022,22.732,15.571,27.557 c10.516,4.812,20.826,0.065,22.85-11.177C78.106,159.793,70.259,145.91,58.626,141.813z"></path> <path fill="#FFFFFF" d="M76.027,74.583c13.854,2.875,29.802-6.111,34.514-19.438c4.758-12.27-2.551-23.04-15.731-24.562 c-12.239-0.922-26.003,6.831-31.56,17.761C57.706,60.412,63.055,72.304,76.027,74.583z"></path> <path fill="#FFFFFF" d="M236.894,90.312c-3.686-3.015-7.229-0.795-8.104,5.288c-3.537-2.264-8.111-4.982-13.734-7.919 c-0.152-9.103-5.961-18.745-13.986-22.841c-8.854-4.064-17.579-0.689-20.195,8.038c-6.717-2.589-12.716-4.809-17.876-6.663 c0.561-8.765-5.408-17.354-14.487-21.277l3.156-13.041c9.994,2.342,18.427-0.76,19.296-6.783 c0.566-5.331-6.437-11.514-15.642-14.354c-8.32-2.081-16.499-0.998-19.736,2.699c-2.94-0.612-6.181-1.2-9.663-1.704 c-3.186-0.461-6.18-0.779-8.929-0.996c0.454-3.274-3.869-5.688-10.314-5.927c-7.144,0.213-15.204,2.898-18.748,6.424 c-3.736,4.44-0.62,8.663,7.518,9.058c8.186,0.783,17.158-2.499,20.419-7.066c2.937,0.203,6.174,0.517,9.628,0.994 c3.089,0.427,6.061,0.957,8.829,1.526c-1.548,5.24,3.573,11.455,12.31,14.637l-4.111,12.868 c-10.746-1.509-21.311,3.729-24.551,13.047c-3.225,9.812,2.088,20.511,12.31,25.271l-4.109,12.862 c-13.253-1.15-25.94,6.488-31.02,19L80.322,109.4c1.508-10.405-4.23-19.867-13.523-21.935c-3.98-0.893-8.03-0.152-11.622,1.793 c-2.2-4.229-4.662-9.399-6.896-15.124c-2-5.124-3.832-10.085-5.379-14.396c4.207-3.634,8.006-8.385,10.469-13.58 c5.958-10.91,2.934-18.232-5.514-17.047c-7.334,1.812-17.213,10.222-23.1,19.32c-5.585,9.984-5.013,18.339,2.167,18.357 c3.562,0.241,7.799-1.281,11.93-3.987c1.051,3.936,2.351,8.482,3.917,13.411c2.224,6.978,4.315,13.384,5.991,18.461 c-1.871,2.326-3.367,5.083-4.29,8.169c-0.603,2.334-0.821,4.68-0.729,6.957c-4.108,3.176-9.342,7.415-15.762,12.975 c-4.04,3.497-7.46,7.033-10.234,10.197c-1.913-3.426-4.285-6.087-6.895-7.432C4.966,122.003,0.372,128.558,0,139.486 c0.331,10.353,4.257,22.113,9.364,27.223c3.177,2.592,6.292,2.742,8.674,0.749c2.784,5.153,5.936,10.828,9.114,16.22 c3.39,5.748,6.893,11.268,9.889,15.839c-1.316,0.831-1.931,2.419-1.579,4.645c1.099,4.418,6.105,10.293,11.59,13.828 c5.946,3.301,11.054,2.994,11.054-1.34c0.141-2.078-0.723-4.532-2.263-6.948c4.281-0.998,9.97-2.546,16.717-4.902 c6.5-2.269,12.901-5.087,18.438-7.769c2.208,2.44,5.032,4.459,8.29,5.796l-4.272,16.872c-8.078-1.761-14.835,0.745-15.53,5.595 c-0.466,4.358,5.268,9.396,12.784,11.711c7.629,1.9,15.145,0.531,16.917-3.448c1.989-4.509-2.451-10.132-10.242-12.769 l4.791-16.701c9.791,1.577,19.437-3.145,22.41-11.599c3.218-9.9-3.359-20.771-14.874-23.878 c-11.455-3.271-22.661,2.682-24.994,12.831c-0.854,4.047-0.05,8.157,1.96,11.771c-5.102,2.906-10.98,5.857-16.976,8.038 c-7.434,2.702-13.624,4.296-17.924,5.212c-2.132-2.322-4.818-4.411-7.761-5.826c-2.005-1.066-3.815-1.633-5.336-1.755 c-3.113-4.725-6.865-10.602-10.485-16.738c-3.397-5.766-6.766-11.855-9.682-17.281c1.231-2.238,2.046-5.378,2.221-9.373 c0.625-6.195-0.433-12.771-2.558-18.259c2.802-2.817,6.364-6.031,10.755-9.504c5.521-4.364,10.597-7.592,15.003-10.025 c1.977,4.586,5.501,8.21,10.16,9.761c8.366,2.788,17.417-1.384,21.935-9.661l15.504,4.232 c-1.269,14.387,7.804,28.079,22.187,32.152c16.185,4.422,32.965-5.061,37.541-21.204c4.019-14.697-3.404-29.876-16.909-35.989 l3.137-12.964c9.71,1.042,18.609-3.603,22.291-11.446c5.396,1.646,11.662,3.71,18.645,6.257 c-0.101,9.834,6.439,19.906,15.757,23.346c8.521,3.288,16.101-0.972,18.562-9.188c6,2.766,10.702,5.118,14.206,6.963 c0.076,7.265,3.253,14.563,7.396,16.786c3.743,2.108,6.684-1.984,6.944-8.964C242.662,101.177,240.171,93.661,236.894,90.312z"></path> <path fill="#FFFFFF" d="M202.115,54.075c10.191,5.521,17.159,2.801,15.895-5.366c-1.605-6.802-9.612-16.208-18.169-21.747 c-9.399-5.244-17.264-4.7-17.282,2.065C182.004,37.053,190.991,48.756,202.115,54.075z"></path> </g> <path fill="#FFFFFF" d="M466.4,344.884c-4.168-2.373-7.404-5.686-9.701-9.936c-2.291-4.253-3.441-9.094-3.441-14.521 c0-5.526,1.197-10.426,3.602-14.707c2.396-4.281,5.669-7.594,9.823-9.938c4.146-2.35,8.747-3.525,13.807-3.525 c4.068,0,7.629,0.502,10.682,1.488c3.06,0.99,5.988,2.374,8.804,4.146c0.419,0.212,0.785,0.577,1.1,1.1 c0.312,0.523,0.473,1.097,0.473,1.723c0,0.886-0.308,1.637-0.903,2.269c-0.603,0.625-1.398,0.938-2.393,0.938 c-0.566,0-1.115-0.13-1.634-0.391c-2.457-1.466-4.907-2.557-7.359-3.289c-2.456-0.727-5.119-1.093-7.98-1.093 c-3.969,0-7.54,0.832-10.724,2.498c-3.185,1.671-5.668,4.109-7.475,7.321c-1.796,3.206-2.693,7.033-2.693,11.46 c0,4.074,0.845,7.713,2.539,10.918c1.688,3.213,4.146,5.746,7.357,7.595c3.206,1.849,7.003,2.773,11.39,2.773 c4.896,0,9.465-1.146,13.688-3.44v-14.159h-12.914c-0.888,0-1.643-0.319-2.269-0.944c-0.619-0.626-0.933-1.383-0.933-2.269 c0-0.887,0.312-1.643,0.933-2.272c0.626-0.626,1.381-0.935,2.269-0.935h15.417c1.045,0,1.937,0.367,2.662,1.094 c0.726,0.73,1.093,1.617,1.093,2.664v17.762c0,1.097-0.271,2.07-0.815,2.938c-0.554,0.857-1.268,1.494-2.152,1.915 c-5.842,2.915-11.816,4.38-17.928,4.38C475.352,348.444,470.575,347.259,466.4,344.884z"></path> <path fill="#FFFFFF" d="M521.058,347.04c-0.679-0.682-1.016-1.518-1.016-2.511v-33.567c0-0.991,0.337-1.84,1.016-2.544 c0.681-0.703,1.508-1.06,2.499-1.06c0.997,0,1.843,0.355,2.552,1.06c0.702,0.704,1.051,1.553,1.051,2.544v3.207 c1.464-2.085,3.225-3.809,5.284-5.167c2.061-1.358,4.729-2.03,8.024-2.03c2.922,0,5.419,0.778,7.512,2.351 c2.078,1.563,3.57,3.467,4.458,5.708c3.229-5.371,8.034-8.059,14.398-8.059c2.918,0,5.357,0.727,7.322,2.189 c1.949,1.459,3.396,3.337,4.334,5.633c0.943,2.298,1.411,4.695,1.411,7.204v22.532c0,0.992-0.354,1.828-1.057,2.51 c-0.702,0.674-1.548,1.015-2.545,1.015c-0.993,0-1.823-0.341-2.497-1.015c-0.681-0.682-1.017-1.518-1.017-2.51v-21.128 c0-3.39-0.609-5.881-1.801-7.469c-1.204-1.594-3.267-2.392-6.188-2.392c-2.659,0-4.866,0.689-6.615,2.071 c-1.745,1.389-3.292,3.201-4.649,5.438v23.477c0,0.993-0.356,1.829-1.06,2.511c-0.701,0.674-1.553,1.015-2.544,1.015 c-0.985,0-1.825-0.341-2.504-1.015c-0.679-0.682-1.016-1.518-1.016-2.511v-21.127c0-3.39-0.597-5.881-1.801-7.469 c-1.199-1.594-3.266-2.392-6.183-2.392c-2.657,0-4.865,0.689-6.613,2.07c-1.747,1.39-3.301,3.202-4.658,5.439v23.477 c0,0.993-0.35,1.829-1.052,2.511c-0.709,0.674-1.554,1.015-2.551,1.015C522.565,348.055,521.738,347.714,521.058,347.04z"></path> <path fill="#FFFFFF" d="M602.832,342.5v2.029c0,0.993-0.354,1.829-1.057,2.511c-0.708,0.674-1.548,1.015-2.545,1.015 c-0.992,0-1.823-0.341-2.505-1.015c-0.673-0.682-1.015-1.518-1.015-2.511v-50.784c0-0.986,0.342-1.837,1.015-2.545 c0.682-0.703,1.513-1.059,2.505-1.059c1.038,0,1.906,0.343,2.58,1.023c0.68,0.678,1.021,1.539,1.021,2.579v19.173 c3.805-3.963,8.268-5.946,13.38-5.946c3.237,0,6.302,0.821,9.2,2.461c2.895,1.648,5.242,4.045,7.038,7.204 c1.8,3.16,2.704,6.844,2.704,11.072c0,4.227-0.904,7.918-2.704,11.068c-1.796,3.16-4.145,5.56-7.038,7.204 c-2.898,1.644-5.963,2.462-9.2,2.462C611.099,348.444,606.636,346.46,602.832,342.5z M624.508,338.117 c2.343-2.449,3.521-5.922,3.521-10.408c0-4.488-1.178-7.955-3.521-10.411c-2.344-2.45-5.45-3.679-9.312-3.679 c-2.396,0-4.657,0.538-6.768,1.605c-2.112,1.069-3.984,2.492-5.598,4.265v16.432c1.612,1.779,3.483,3.2,5.598,4.269 c2.109,1.071,4.37,1.607,6.768,1.607C619.058,341.797,622.165,340.567,624.508,338.117z"></path> <path fill="#FFFFFF" d="M649.816,347.04c-0.687-0.682-1.018-1.518-1.018-2.511v-48.281c0-0.991,0.331-1.837,1.018-2.538 c0.679-0.71,1.51-1.059,2.502-1.059c0.985,0,1.837,0.349,2.54,1.059c0.708,0.701,1.056,1.547,1.056,2.538v20.813h29.66v-20.813 c0-0.991,0.343-1.837,1.021-2.538c0.672-0.71,1.513-1.059,2.504-1.059c0.984,0,1.837,0.349,2.544,1.059 c0.704,0.701,1.059,1.547,1.059,2.538v48.281c0,0.993-0.354,1.829-1.059,2.511c-0.707,0.674-1.56,1.015-2.544,1.015 c-0.991,0-1.832-0.341-2.504-1.015c-0.679-0.682-1.021-1.518-1.021-2.511v-20.812h-29.66v20.812c0,0.993-0.348,1.829-1.056,2.511 c-0.703,0.674-1.555,1.015-2.54,1.015C651.326,348.055,650.495,347.714,649.816,347.04z"></path> <path fill="#FFFFFF" d="M200.065,181.087l69.249,92.1c0.114,0.118,0.265,0.247,0.415,0.376l0.136,0.118 c0.09,0.096,0.131,0.15,0.173,0.207c0.027,0.038,0.055,0.076,0.089,0.11c1.04,1.046,2.49,1.576,4.309,1.576 c1.729,0,3.084-0.517,4.143-1.577c1.058-1.052,1.571-2.459,1.571-4.31V164.646c0-1.849-0.514-3.258-1.57-4.309 c-1.061-1.062-2.417-1.576-4.144-1.576c-1.818,0-3.269,0.529-4.31,1.574c-1.045,1.043-1.575,2.492-1.575,4.311V253l-68.789-91.497 c-0.287-0.304-0.643-0.618-1.056-0.923c-0.107-0.104-0.142-0.149-0.176-0.196c-1.096-1.106-2.452-1.622-4.179-1.622 c-1.819,0-3.269,0.529-4.308,1.574c-1.047,1.042-1.577,2.491-1.577,4.311V269.69c0,1.82,0.53,3.271,1.575,4.309 c1.04,1.049,2.49,1.578,4.31,1.578c1.729,0,3.084-0.517,4.144-1.577c1.057-1.051,1.571-2.459,1.571-4.31L200.065,181.087 L200.065,181.087z"></path> <path fill="#FFFFFF" d="M313.565,187.244c-1.818,0-3.269,0.528-4.31,1.573c-1.047,1.044-1.577,2.495-1.577,4.312v76.559 c0,1.819,0.529,3.27,1.575,4.309c1.041,1.049,2.491,1.578,4.312,1.578c1.728,0,3.083-0.517,4.144-1.577 c1.057-1.051,1.57-2.46,1.57-4.31V193.13c0-1.847-0.515-3.257-1.569-4.311C316.646,187.759,315.291,187.244,313.565,187.244z"></path> <path fill="#FFFFFF" d="M421.363,207.386c-3.321-6.528-8.068-11.707-14.109-15.393c-6.04-3.691-13.229-5.563-21.375-5.563 c-8.252,0-15.636,1.953-21.947,5.805c-6.312,3.854-11.337,9.202-14.93,15.898c-3.589,6.703-5.41,14.562-5.41,23.359 c0,8.692,1.931,16.521,5.736,23.268c3.801,6.748,9.12,12.096,15.812,15.896c6.693,3.806,14.495,5.734,23.188,5.734 c5.04,0,10.365-1.006,15.83-2.989c5.462-1.979,10.025-4.506,13.567-7.507c1.196-0.994,1.753-2.148,1.706-3.534 c-0.055-1.397-0.726-2.677-2.053-3.902c-0.916-0.731-2.012-1.099-3.322-1.099l-0.245,0.005c-1.413,0.054-2.688,0.539-3.787,1.441 c-2.429,2.09-5.695,3.853-9.706,5.228c-4.004,1.369-8.038,2.062-11.99,2.062c-6.583,0-12.488-1.504-17.552-4.471 c-5.061-2.974-9.102-7.1-12.011-12.264c-2.27-4.016-3.67-8.64-4.16-13.742l-0.054-0.532h66.424c1.633,0,2.91-0.463,3.907-1.417 c1.002-0.95,1.487-2.197,1.487-3.812C426.372,221.493,424.688,213.933,421.363,207.386z M354.782,225.613l0.077-0.553 c0.593-4.26,1.736-8.128,3.404-11.497c2.585-5.225,6.295-9.384,11.028-12.359c4.746-2.974,10.327-4.479,16.586-4.479 c6.159,0,11.548,1.454,16.017,4.322c4.456,2.859,7.948,6.879,10.38,11.949c1.729,3.62,2.825,7.686,3.259,12.085l0.052,0.533 L354.782,225.613L354.782,225.613z"></path> <path fill="#FFFFFF" d="M313.512,158.844c-3.132,0-5.678,2.55-5.678,5.685c0,3.132,2.546,5.679,5.678,5.679 c3.135,0,5.686-2.547,5.686-5.679C319.197,161.394,316.646,158.844,313.512,158.844z"></path> <path fill="#FFFFFF" d="M440.124,190.51c-1.494,0-2.754,0.478-3.745,1.42c-0.994,0.947-1.478,2.139-1.478,3.646 c0,1.397,0.482,2.537,1.478,3.484c0.991,0.943,2.252,1.421,3.745,1.421h11.103v44.073c0,5.982,1.298,11.368,3.854,16.009 c2.558,4.636,6.097,8.337,10.519,11.001c4.428,2.662,9.533,4.012,15.179,4.012h3.426c1.832,0,3.373-0.537,4.579-1.6 c1.209-1.054,1.795-2.4,1.795-4.121c0-1.711-0.508-3.139-1.509-4.243c-0.998-1.102-2.27-1.637-3.887-1.637h-4.404 c-5.231,0-9.58-1.838-12.929-5.463c-3.337-3.609-5.028-8.306-5.028-13.958V200.48h18.938c1.511,0,2.735-0.466,3.746-1.422 c0.995-0.946,1.479-2.087,1.479-3.483c0-1.507-0.483-2.696-1.479-3.646c-1.009-0.954-2.232-1.42-3.745-1.42H462.82v-25.787 c0-1.73-0.541-3.114-1.652-4.227c-1.111-1.113-2.494-1.652-4.227-1.652c-1.731,0-3.085,0.537-4.137,1.644 c-1.062,1.111-1.579,2.496-1.579,4.235v25.787L440.124,190.51L440.124,190.51z"></path> <path fill="#FFFFFF" d="M516.021,187.244c-1.837,0-3.245,0.515-4.309,1.574c-1.042,1.044-1.57,2.495-1.57,4.312v76.559 c0,1.817,0.528,3.268,1.57,4.31c1.062,1.062,2.47,1.577,4.309,1.577c1.732,0,3.091-0.517,4.15-1.577 c1.042-1.041,1.569-2.49,1.569-4.31V193.13c0-1.816-0.527-3.268-1.569-4.312C519.125,187.774,517.729,187.244,516.021,187.244z"></path> <path fill="#FFFFFF" d="M515.828,158.844c-3.135,0-5.686,2.55-5.686,5.685c0,3.132,2.551,5.679,5.686,5.679 c3.131,0,5.679-2.547,5.679-5.679C521.506,161.394,518.958,158.844,515.828,158.844z"></path> <path fill="#FFFFFF" d="M623.82,207.386c-3.312-6.521-8.058-11.7-14.103-15.393c-6.046-3.691-13.237-5.563-21.376-5.563 c-8.25,0-15.636,1.953-21.953,5.805c-6.319,3.86-11.341,9.209-14.924,15.898c-3.59,6.688-5.409,14.548-5.409,23.359 c0,8.688,1.929,16.519,5.729,23.269c3.8,6.745,9.122,12.092,15.818,15.895c6.688,3.807,14.487,5.734,23.184,5.734 c5.043,0,10.37-1.006,15.835-2.989c5.465-1.981,10.028-4.507,13.562-7.506c1.197-0.996,1.755-2.15,1.706-3.534 c-0.048-1.394-0.717-2.671-2.047-3.904c-0.922-0.729-2.02-1.098-3.329-1.098l-0.245,0.005c-1.428,0.055-2.668,0.525-3.788,1.442 c-2.409,2.083-5.677,3.844-9.697,5.227c-4.006,1.369-8.043,2.062-11.997,2.062c-6.586,0-12.489-1.504-17.546-4.471 c-5.066-2.978-9.109-7.104-12.018-12.264c-2.271-4.029-3.67-8.653-4.157-13.742l-0.053-0.532h66.426 c1.628,0,2.906-0.464,3.911-1.418c0.993-0.945,1.478-2.192,1.478-3.812C628.828,221.491,627.143,213.931,623.82,207.386z M557.242,225.613l0.077-0.554c0.593-4.258,1.737-8.126,3.402-11.496c2.587-5.228,6.3-9.386,11.035-12.36 c4.737-2.973,10.317-4.479,16.585-4.479c6.152,0,11.541,1.454,16.017,4.322c4.461,2.865,7.952,6.886,10.379,11.949 c1.729,3.616,2.823,7.684,3.254,12.085l0.051,0.532L557.242,225.613L557.242,225.613z"></path> <path fill="#FFFFFF" d="M642.587,190.51c-1.517,0-2.741,0.465-3.744,1.42c-0.999,0.944-1.483,2.137-1.483,3.646 c0,1.4,0.484,2.541,1.482,3.483c1.006,0.957,2.229,1.422,3.745,1.422h11.097v44.073c0,5.983,1.299,11.369,3.86,16.008 c2.562,4.643,6.1,8.343,10.518,11.002c4.421,2.662,9.526,4.012,15.175,4.012h3.43c1.854,0,3.351-0.523,4.575-1.6 c1.208-1.055,1.794-2.401,1.794-4.121c0-1.714-0.506-3.142-1.503-4.243c-1.002-1.102-2.273-1.637-3.887-1.637h-4.409 c-5.231,0-9.581-1.838-12.929-5.463c-3.335-3.606-5.024-8.304-5.024-13.958V200.48h18.934c1.517,0,2.739-0.465,3.744-1.421 c0.999-0.95,1.484-2.09,1.484-3.484c0-1.504-0.485-2.695-1.484-3.646c-1.003-0.955-2.229-1.42-3.744-1.42h-18.934v-25.787 c0-1.727-0.541-3.109-1.653-4.228c-1.11-1.111-2.493-1.651-4.226-1.651c-1.729,0-3.084,0.537-4.143,1.645 c-1.047,1.103-1.578,2.526-1.578,4.234v25.787L642.587,190.51L642.587,190.51z"></path> </svg>